#!OML:ASF H:\Terrain\Patient Classification 1\Animal1\Tuesday\Animal1.ASF
:FULLY-SPECIFIED
:DEGREES
2945
root 8.56893 16.8818 -7.68825 -890.955 -28.373 186.698
lowerback 6.45686 -3.30021 -5.6523
upperback -3.21549 -6.31024 -8.21179
thorax -7.43559 -3.38309 -4.69397
lowerneck 3.19744 7.45587 -4.99977
upperneck -17.5153 8.34921 -4.91583
head -5.84933 4.5123 -1.21067
rclavicle -3.18055e-015 9.85972e-014
rhumerus -9.7855 1.40644 10.7386
rradius 30.0166
rwrist -6.91409
rhand -15.4264 33.2
rfingers 7.12502
rthumb 10.7535 3.49523
lclavicle -3.18055e-015 9.85972e-014
lhumerus -12.104 12.9964 28.6993
lradius 55.3241
lwrist -29.6863
lhand -2.81224 38.442
lfingers 7.12502
lthumb 22.8942 67.1029
rfemur -28.6392 -2.08888 34.7979
rtibia 38.0019
rfoot 14.2273 -9.79597
rtoes -21.5717
lfemur -42.214 9.54829 -16.8196
ltibia 63.7767
lfoot 7.41315 12.3286
ltoes 40.4815
2946
root 8.55835 16.8823 -7.74238 -890.66 -29.3646 186.141
lowerback 6.64162 -3.23543 -6.29648
upperback -3.21983 -6.35518 -8.39204
thorax -7.51333 -3.39033 -4.51311
lowerneck 3.27573 7.41102 -4.96544
upperneck -17.4578 8.31704 -4.83551
head -5.84594 4.49441 -1.19123
rclavicle 4.81059e-014 2.8943e-013
rhumerus -9.76297 1.20221 10.5316
rradius 29.8649
rwrist -6.89778
rhand -15.6114 32.3441
rfingers 7.12502
rthumb 10.575 2.6302
lclavicle 4.81059e-014 2.8943e-013
lhumerus -12.0792 12.8343 28.6589
lradius 55.409
lwrist -29.8272
lhand -2.80693 38.1604
lfingers 7.12502
lthumb 22.8992 66.8207
rfemur -28.662 -2.10778 34.2532
rtibia 38.2303
rfoot 13.9274 -11.256
rtoes -16.8296
lfemur -42.4863 9.66074 -17.332
ltibia 62.4441
lfoot 6.63393 13.5921
ltoes 39.8897
2947
root 8.5466 16.8706 -7.78893 -890.547 -30.397 186.066
lowerback 6.72492 -3.19551 -6.402
upperback -3.15872 -6.331 -8.50784
thorax -7.50009 -3.3802 -4.57851
lowerneck 3.59963 7.39424 -4.84305
upperneck -17.8034 8.25469 -4.9275
head -6.00055 4.4721 -1.25767
rclavicle 5.1684e-015 -1.04958e-013
rhumerus -9.89316 0.886682 10.2577
rradius 29.853
rwrist -6.90429
rhand -15.3429 31.7644
rfingers 7.12502
rthumb 10.834 2.06385
lclavicle 5.1684e-015 -1.04958e-013
lhumerus -11.8978 12.9597 28.6625
lradius 55.4244
lwrist -30.0804
lhand -2.30277 38.0556
lfingers 7.12502
lthumb 23.383 66.6552
rfemur -28.7236 -2.29924 34.2736
rtibia 38.3818
rfoot 14.224 -11.9848
rtoes -15.5937
lfemur -42.9509 9.87099 -17.4343
ltibia 61.0904
lfoot 5.26429 15.6921
ltoes 42.9884
2948
root 8.52325 16.8726 -7.83689 -890.728 -31.4497 186.328
lowerback 7.00719 -3.21754 -6.29864
upperback -3.16875 -6.34813 -8.40199
thorax -7.67028 -3.37379 -4.5023
lowerneck 3.75262 7.42865 -4.75091
upperneck -17.8068 8.2762 -5.12292
head -6.01468 4.49556 -1.34061
rclavicle 9.54166e-015 6.04305e-014
rhumerus -9.82142 1.31058 10.2175
rradius 29.9815
rwrist -7.26218
rhand -15.4459 31.4155
rfingers 7.12502
rthumb 10.7346 1.70972
lclavicle 9.54166e-015 6.04305e-014
lhumerus -12.1423 13.0312 28.7435
lradius 55.4531
lwrist -30.0592
lhand -2.50086 38.3194
lfingers 7.12502
lthumb 23.1929 66.943
rfemur -28.5051 -2.51546 34.4722
rtibia 38.4621
rfoot 14.0495 -13.2737
rtoes -13.5844
lfemur -43.2815 10.178 -17.2976
ltibia 59.6857
lfoot 4.37901 17.3334
ltoes 44.4491
2949
root 8.49251 16.8911 -7.89114 -890.692 -32.4474 186.16
lowerback 7.11434 -3.18719 -6.50995
upperback -3.08705 -6.33678 -8.4614
thorax -7.63058 -3.35997 -4.44576
lowerneck 3.67895 7.40747 -4.59072
upperneck -17.6667 8.25578 -5.28611
head -5.94204 4.48686 -1.40753
rclavicle -5.1684e-014 -3.18055e-014
rhumerus -9.90661 1.72396 10.1463
rradius 30.087
rwrist -7.80685
rhand -16.0006 30.9374
rfingers 7.12502
rthumb 10.1996 1.20462
lclavicle -5.1684e-014 -3.18055e-014
lhumerus -12.1816 13.0199 28.7872
lradius 55.4746
lwrist -29.9619
lhand -2.75843 38.5334
lfingers 7.12502
lthumb 22.9458 67.1879
rfemur -28.2822 -3.03053 34.3283
rtibia 38.4478
rfoot 13.4887 -14.3276
rtoes -10.4639
lfemur -43.3854 10.3673 -17.5429
ltibia 58.143
lfoot 3.844 18.6513
ltoes 45.6711
2950
root 8.46316 16.9053 -7.94436 -890.527 -33.4465 185.946
lowerback 7.08769 -3.13073 -6.70797
upperback -3.00945 -6.29383 -8.60873
thorax -7.53031 -3.34208 -4.50385
lowerneck 3.7527 7.36618 -4.42893
upperneck -17.7037 8.20975 -5.33676
head -5.95573 4.46227 -1.44953
rclavicle 5.12864e-014 1.17681e-013
rhumerus -10.0318 1.69993 9.93467
rradius 29.9769
rwrist -7.97774
rhand -16.3391 30.8986
rfingers 7.12502
rthumb 9.87304 1.15006
lclavicle 5.12864e-014 1.17681e-013
lhumerus -11.9153 13.0904 28.8574
lradius 55.3265
lwrist -30.175
lhand -3.10727 38.282
lfingers 7.12502
lthumb 22.611 66.9777
rfemur -28.2795 -3.93301 34.4136
rtibia 38.3061
rfoot 14.7072 -13.1834
rtoes -15.4176
lfemur -43.5115 10.5009 -17.7621
ltibia 56.5656
lfoot 2.20998 20.3623
ltoes 49.0737
2951
root 8.43328 16.9138 -7.99417 -890.578 -34.4026 186.058
lowerback 7.23024 -3.07355 -6.68754
upperback -2.99698 -6.22303 -8.62399
thorax -7.60029 -3.30322 -4.53336
lowerneck 3.9193 7.35339 -4.48984
upperneck -17.829 8.18964 -5.25984
head -6.0307 4.45762 -1.42596
rclavicle -1.145e-013 -3.81667e-014
rhumerus -10.0389 1.25983 9.77835
rradius 29.7529
rwrist -7.44968
rhand -15.7534 31.424
rfingers 7.12502
rthumb 10.4381 1.70314
lclavicle -1.145e-013 -3.81667e-014
lhumerus -11.7511 13.1664 29.0246
lradius 55.0303
lwrist -30.3894
lhand -3.67735 38.0406
lfingers 7.12502
lthumb 22.0638 66.8019
rfemur -28.1396 -4.52651 34.685
rtibia 38.0764
rfoot 15.6788 -12.3169
rtoes -20.0253
lfemur -43.6646 10.8105 -17.7314
ltibia 55.0734
lfoot 0.88716 21.6173
ltoes 50.3539
2952
root 8.40526 16.922 -8.04185 -890.804 -35.2825 186.635
lowerback 7.32179 -3.05677 -6.39704
upperback -3.02175 -6.12479 -8.43072
thorax -7.67571 -3.24326 -4.49454
lowerneck 3.90311 7.43191 -4.94692
upperneck -17.9243 8.30036 -4.95528
head -6.09542 4.52237 -1.27097
rclavicle -8.62725e-014 6.04305e-014
rhumerus -9.89677 1.14843 9.72059
rradius 29.5939
rwrist -7.25095
rhand -15.2052 31.8623
rfingers 7.12502
rthumb 10.9669 2.16872
lclavicle -8.62725e-014 6.04305e-014
lhumerus -11.8825 13.3649 29.1424
lradius 54.9414
lwrist -30.4125
lhand -3.59241 37.9084
lfingers 7.12502
lthumb 22.1453 66.6601
rfemur -27.9066 -4.51647 35.1496
rtibia 37.7845
rfoot 15.4606 -13.4083
rtoes -18.9718
lfemur -44.0816 11.3115 -17.3439
ltibia 53.7331
lfoot -1.08507 22.7239
ltoes 52.0573
2953
root 8.37392 16.9241 -8.08915 -890.792 -36.1789 187.062
lowerback 7.05573 -3.0553 -6.26367
upperback -2.97419 -6.01854 -8.25316
thorax -7.45158 -3.18152 -4.4087
lowerneck 3.63974 7.50181 -5.16952
upperneck -17.7632 8.41075 -4.90517
head -6.01317 4.58345 -1.2132
rclavicle -6.59965e-014 1.81292e-013
rhumerus -9.83305 1.55072 9.68537
rradius 29.6167
rwrist -7.94342
rhand -15.4576 31.6952
rfingers 7.12502
rthumb 10.7234 1.98885
lclavicle -6.59965e-014 1.81292e-013
lhumerus -11.9524 13.6321 29.2468
lradius 55.0055
lwrist -30.4003
lhand -2.93812 37.6591
lfingers 7.12502
lthumb 22.7734 66.3349
rfemur -27.7874 -4.70404 35.5588
rtibia 37.4628
rfoot 15.4767 -14.014
rtoes -18.3066
lfemur -44.6679 11.6478 -17.0933
ltibia 52.4204
lfoot -4.14205 23.7571
ltoes 55.5763
2954
root 8.33491 16.9231 -8.132 -890.569 -37.0521 186.957
lowerback 6.80629 -3.02164 -6.4955
upperback -2.81479 -5.93398 -8.23416
thorax -7.10583 -3.13129 -4.28819
lowerneck 3.29913 7.52731 -5.12713
upperneck -17.5803 8.44789 -5.10228
head -5.88599 4.60565 -1.26333
rclavicle 3.89618e-014 -3.81667e-014
rhumerus -9.93937 1.69983 9.6043
rradius 29.7911
rwrist -8.55395
rhand -15.8593 31.6795
rfingers 7.12502
rthumb 10.3359 1.95347
lclavicle 3.89618e-014 -3.81667e-014
lhumerus -11.8502 13.9092 29.3751
lradius 55.0166
lwrist -30.3681
lhand -2.86572 37.4327
lfingers 7.12502
lthumb 22.8428 66.1
rfemur -27.6793 -5.09933 35.5115
rtibia 37.2294
rfoot 16.1448 -14.0372
rtoes -20.1085
lfemur -45.0129 11.8745 -17.3934
ltibia 50.9436
lfoot -4.60395 24.8752
ltoes 56.1947
